<?xml version="1.0" encoding="utf-8"?>
<!-- Generator: Adobe Illustrator 16.0.0, SVG Export Plug-In . SVG Version: 6.00 Build 0)  -->
<!DOCTYPE svg PUBLIC "-//W3C//DTD SVG 1.1//EN" "http://www.w3.org/Graphics/SVG/1.1/DTD/svg11.dtd">
<svg version="1.1" id="Layer_1" xmlns="http://www.w3.org/2000/svg" xmlns:xlink="http://www.w3.org/1999/xlink" x="0px" y="0px"
	 width="676.726px" height="124.703px" viewBox="0 0 676.726 124.703" enable-background="new 0 0 676.726 124.703"
	 xml:space="preserve">
<path d="M23.305,81.047c6.435,8.87,17.566,14.957,30.262,14.957c10.783,0,16.175-2.956,16.175-8.696
	c0-3.304-2.088-5.565-6.784-7.478c-2.26-0.87-4.695-1.739-7.13-2.436c-4.696-1.391-13.392-4-19.131-6.087
	C18.087,64.351,8.696,52.699,8.696,36.35c0-11.479,4.173-20.35,12.695-26.785C29.915,3.131,40.175,0,52.176,0
	c20,0,34.958,6.435,44.871,19.306l-21.74,18.609c-5.391-6.435-12.696-9.565-21.914-9.565c-8.522,0-13.218,3.13-13.218,7.478
	c0,3.478,1.218,5.391,4.87,6.957c1.913,0.87,4,1.565,6.087,2.087c4.174,0.87,13.74,3.652,21.392,6.435
	c20.871,7.478,29.393,18.436,29.393,34.958c0,23.479-16.175,38.438-48.35,38.438c-13.566,0-24.697-2.437-33.567-7.48
	c-8.696-5.043-15.305-11.131-20-18.261L23.305,81.047z"/>
<polygon points="107.671,122.962 107.671,1.74 197.067,1.74 197.067,31.481 140.716,31.481 140.716,48.176 193.24,48.176 
	193.24,75.308 140.716,75.308 140.716,93.744 198.458,93.744 198.458,122.962 "/>
<polygon points="330.805,122.962 330.805,1.74 420.198,1.74 420.198,31.481 363.849,31.481 363.849,48.176 416.372,48.176 
	416.372,75.308 363.849,75.308 363.849,93.744 421.591,93.744 421.591,122.962 "/>
<polygon points="431.502,122.962 431.502,1.74 458.633,1.74 497.938,56.873 537.245,1.74 564.376,1.74 564.376,122.962 
	533.767,122.962 533.767,58.785 497.938,108.353 462.11,58.785 462.11,122.962 "/>
<path d="M577.245,122.961V1.741h56.871c9.217,0,19.305,3.651,27.827,10.609c8.522,6.782,14.782,18.609,14.782,32.522
	c0,12.348-4.521,22.611-13.391,30.784c-8.871,8.174-18.61,12.175-29.219,12.175h-23.827v35.131H577.245z M610.289,57.917h22.435
	c1.566,0,3.131-0.348,6.088-1.74c3.305-1.391,5.393-5.565,5.393-11.305c0-6.088-2.088-10.26-5.393-11.652
	c-3.304-1.392-4.695-1.566-6.261-1.566h-22.262V57.917z"/>
<path d="M305.766,18.612C294.639,7.301,278.639,1.744,257.592,1.744h-49.224v45.175h33.124v-21.6l54.084,37.032l-54.084,37.018
	V77.783h-33.124v45.175h49.395c21.045,0,37.216-5.386,48.173-16.342c11.14-10.956,16.697-25.563,16.697-44.009
	C322.633,44.517,317.077,29.909,305.766,18.612"/>
<rect x="330.991" y="61.884" width="14.745" height="2.679"/>
</svg>
