<?xml version="1.0" encoding="UTF-8" standalone="no"?>
<svg
   xmlns:dc="http://purl.org/dc/elements/1.1/"
   xmlns:cc="http://creativecommons.org/ns#"
   xmlns:rdf="http://www.w3.org/1999/02/22-rdf-syntax-ns#"
   xmlns:svg="http://www.w3.org/2000/svg"
   xmlns="http://www.w3.org/2000/svg"
   viewBox="0 0 7559.0532 765.27734"
   height="765.27734"
   width="7559.0532"
   xml:space="preserve"
   id="svg2"
   version="1.1"><metadata
     id="metadata8"><rdf:RDF><cc:Work
         rdf:about=""><dc:format>image/svg+xml</dc:format><dc:type
           rdf:resource="http://purl.org/dc/dcmitype/StillImage" /></cc:Work></rdf:RDF></metadata><defs
     id="defs6"><linearGradient
       id="linearGradient28"
       spreadMethod="pad"
       gradientTransform="matrix(0,-603.64514,-603.64514,0,2869.5972,507.56766)"
       gradientUnits="userSpaceOnUse"
       y2="0"
       x2="1"
       y1="0"
       x1="0"><stop
         id="stop24"
         offset="0"
         style="stop-opacity:1;stop-color:#1d8975" /><stop
         id="stop26"
         offset="1"
         style="stop-opacity:1;stop-color:#4eb5a0" /></linearGradient><linearGradient
       id="linearGradient48"
       spreadMethod="pad"
       gradientTransform="matrix(0,-603.64514,-603.64514,0,205.15047,507.56766)"
       gradientUnits="userSpaceOnUse"
       y2="0"
       x2="1"
       y1="0"
       x1="0"><stop
         id="stop44"
         offset="0"
         style="stop-opacity:1;stop-color:#1d8975" /><stop
         id="stop46"
         offset="1"
         style="stop-opacity:1;stop-color:#4eb5a0" /></linearGradient><linearGradient
       id="linearGradient68"
       spreadMethod="pad"
       gradientTransform="matrix(0,-603.64514,-603.64514,0,616.21039,507.56766)"
       gradientUnits="userSpaceOnUse"
       y2="0"
       x2="1"
       y1="0"
       x1="0"><stop
         id="stop64"
         offset="0"
         style="stop-opacity:1;stop-color:#1d8975" /><stop
         id="stop66"
         offset="1"
         style="stop-opacity:1;stop-color:#4eb5a0" /></linearGradient><linearGradient
       id="linearGradient88"
       spreadMethod="pad"
       gradientTransform="matrix(0,-603.64514,-603.64514,0,1514.5083,507.56766)"
       gradientUnits="userSpaceOnUse"
       y2="0"
       x2="1"
       y1="0"
       x1="0"><stop
         id="stop84"
         offset="0"
         style="stop-opacity:1;stop-color:#1d8975" /><stop
         id="stop86"
         offset="1"
         style="stop-opacity:1;stop-color:#4eb5a0" /></linearGradient><linearGradient
       id="linearGradient108"
       spreadMethod="pad"
       gradientTransform="matrix(0,-603.64514,-603.64514,0,2004.6185,507.56766)"
       gradientUnits="userSpaceOnUse"
       y2="0"
       x2="1"
       y1="0"
       x1="0"><stop
         id="stop104"
         offset="0"
         style="stop-opacity:1;stop-color:#1d8975" /><stop
         id="stop106"
         offset="1"
         style="stop-opacity:1;stop-color:#4eb5a0" /></linearGradient><linearGradient
       id="linearGradient128"
       spreadMethod="pad"
       gradientTransform="matrix(0,-603.64893,-603.64893,0,2524.1392,507.56934)"
       gradientUnits="userSpaceOnUse"
       y2="0"
       x2="1"
       y1="0"
       x1="0"><stop
         id="stop124"
         offset="0"
         style="stop-opacity:1;stop-color:#1d8975" /><stop
         id="stop126"
         offset="1"
         style="stop-opacity:1;stop-color:#4eb5a0" /></linearGradient><linearGradient
       id="linearGradient148"
       spreadMethod="pad"
       gradientTransform="matrix(0,-603.64514,-603.64514,0,2820.6968,507.56766)"
       gradientUnits="userSpaceOnUse"
       y2="0"
       x2="1"
       y1="0"
       x1="0"><stop
         id="stop144"
         offset="0"
         style="stop-opacity:1;stop-color:#1d8975" /><stop
         id="stop146"
         offset="1"
         style="stop-opacity:1;stop-color:#4eb5a0" /></linearGradient><linearGradient
       id="linearGradient168"
       spreadMethod="pad"
       gradientTransform="matrix(0,-603.64514,-603.64514,0,2918.4973,507.56766)"
       gradientUnits="userSpaceOnUse"
       y2="0"
       x2="1"
       y1="0"
       x1="0"><stop
         id="stop164"
         offset="0"
         style="stop-opacity:1;stop-color:#1d8975" /><stop
         id="stop166"
         offset="1"
         style="stop-opacity:1;stop-color:#4eb5a0" /></linearGradient><linearGradient
       id="linearGradient188"
       spreadMethod="pad"
       gradientTransform="matrix(0,-603.64514,-603.64514,0,1068.8616,507.56766)"
       gradientUnits="userSpaceOnUse"
       y2="0"
       x2="1"
       y1="0"
       x1="0"><stop
         id="stop184"
         offset="0"
         style="stop-opacity:1;stop-color:#1d8975" /><stop
         id="stop186"
         offset="1"
         style="stop-opacity:1;stop-color:#4eb5a0" /></linearGradient><clipPath
       id="clipPath198"
       clipPathUnits="userSpaceOnUse"><path
         id="path196"
         d="M 0,573.958 H 5669.292 V 0 H 0 Z" /></clipPath></defs><g
     transform="matrix(1.3333333,0,0,-1.3333333,0,765.27733)"
     id="g10"><g
       id="g12"><g
         id="g14"><g
           id="g20"><g
             id="g22"><path
               id="path30"
               style="fill:url(#linearGradient28);stroke:none"
               d="m 2918.497,408.495 h -97.8 v 97.8 h 97.8 z" /></g></g></g></g><g
       id="g32"><g
         id="g34"><g
           id="g40"><g
             id="g42"><path
               id="path50"
               style="fill:url(#linearGradient48);stroke:none"
               d="M 86.12,441.878 C 51.811,417.182 35.01,383.139 35.01,339.083 v 0 c 0,-62.744 37.808,-107.466 112.726,-134.165 v 0 c 23.106,-8.009 58.115,-18.023 77.019,-23.358 v 0 c 9.804,-2.674 19.606,-6.009 28.706,-9.348 v 0 c 18.907,-7.339 27.308,-16.019 27.308,-28.701 v 0 c 0,-22.028 -21.703,-33.372 -65.116,-33.372 v 0 c -51.113,0 -95.924,23.36 -121.829,57.402 v 0 L 0,98.79 C 18.903,71.425 45.51,48.061 80.519,28.707 v 0 C 116.229,9.346 161.04,0 215.653,0 v 0 c 129.532,0 194.648,57.407 194.648,147.516 v 0 c 0,63.411 -34.308,105.463 -118.33,134.165 v 0 c -30.805,10.678 -69.318,21.357 -86.12,24.696 v 0 c -8.401,2.002 -16.804,4.671 -24.506,8.01 v 0 c -14.703,6.007 -19.606,13.352 -19.606,26.698 v 0 c 0,16.686 18.905,28.702 53.213,28.702 v 0 c 37.111,0 66.519,-12.016 88.224,-36.711 v 0 l 87.521,71.419 c -39.909,49.398 -100.126,74.094 -180.644,74.094 v 0 c -48.314,0 -89.623,-12.016 -123.933,-36.711" /></g></g></g></g><g
       id="g52"><g
         id="g54"><g
           id="g60"><g
             id="g62"><path
               id="path70"
               style="fill:url(#linearGradient68);stroke:none"
               d="M 433.465,471.91 V 6.679 H 798.956 V 118.816 H 566.498 v 70.753 H 777.95 V 293.695 H 566.498 v 64.076 H 793.356 V 471.91 Z" /></g></g></g></g><g
       id="g72"><g
         id="g74"><g
           id="g80"><g
             id="g82"><path
               id="path90"
               style="fill:url(#linearGradient88);stroke:none"
               d="M 1331.763,471.91 V 6.679 h 365.49 v 112.137 h -232.458 v 70.753 h 211.452 v 104.126 h -211.452 v 64.076 H 1691.65 V 471.91 Z" /></g></g></g></g><g
       id="g92"><g
         id="g94"><g
           id="g100"><g
             id="g102"><path
               id="path110"
               style="fill:url(#linearGradient108);stroke:none"
               d="M 2162.857,471.91 2004.619,260.318 1846.38,471.91 H 1737.154 V 6.679 h 123.226 v 246.3 L 2004.619,62.744 2148.857,252.979 V 6.679 h 123.226 V 471.91 Z" /></g></g></g></g><g
       id="g112"><g
         id="g114"><g
           id="g120"><g
             id="g122"><path
               id="path130"
               style="fill:url(#linearGradient128);stroke:none"
               d="M 2323.892,471.912 V 6.677 h 133.031 v 134.831 h 95.924 c 42.709,0 81.918,15.355 117.627,46.725 v 0 c 35.711,31.368 53.913,70.755 53.913,118.144 v 0 c 0,53.398 -25.202,98.791 -59.51,124.818 v 0 c -34.314,26.704 -74.924,40.717 -112.03,40.717 v 0 z m 133.031,-114.806 h 89.622 c 6.302,0 11.905,-0.665 25.206,-6.007 v 0 c 13.304,-5.342 21.706,-21.357 21.706,-44.722 v 0 c 0,-22.028 -8.402,-38.049 -21.706,-43.384 v 0 c -11.904,-5.343 -18.206,-6.679 -24.507,-6.679 v 0 h -90.321 z" /></g></g></g></g><g
       id="g132"><g
         id="g134"><g
           id="g140"><g
             id="g142"><path
               id="path150"
               style="fill:url(#linearGradient148);stroke:none"
               d="M 2757.282,471.909 V 6.684 h 126.828 v 380.874 h -84.351 v 84.351 z" /></g></g></g></g><g
       id="g152"><g
         id="g154"><g
           id="g160"><g
             id="g162"><path
               id="path170"
               style="fill:url(#linearGradient168);stroke:none"
               d="m 2895.135,527.233 h 46.725 v 46.725 h -46.725 z" /></g></g></g></g><g
       id="g172"><g
         id="g174"><g
           id="g180"><g
             id="g182"><path
               id="path190"
               style="fill:url(#linearGradient188);stroke:none"
               d="M 838.856,471.895 V 298.522 h 133.352 v 82.896 L 1189.943,239.294 972.208,97.226 v 82.841 H 838.856 V 6.694 h 198.856 c 84.725,0 149.828,20.669 193.935,62.718 v 0 c 44.851,42.048 67.22,98.112 67.22,168.901 v 0 c 0,69.426 -22.369,125.49 -67.906,168.847 v 0 c -44.794,43.411 -109.21,64.735 -193.935,64.735 v 0 z" /></g></g></g></g><g
       id="g192"><g
         clip-path="url(#clipPath198)"
         id="g194"><g
           transform="translate(3283.7183,355.1919)"
           id="g200"><path
             id="path202"
             style="fill:#9f9f9f;fill-opacity:1;fill-rule:nonzero;stroke:none"
             d="m 0,0 c -15.368,0 -27.736,4.819 -37.099,14.457 l 9.001,12.412 c 7.729,-8.457 17.322,-12.684 28.78,-12.684 6.088,0 10.641,1.229 13.642,3.684 2.995,2.454 4.499,5.407 4.499,8.865 0,2.91 -1.298,5.341 -3.889,7.297 -2.591,1.954 -5.864,3.385 -9.819,4.297 -3.955,0.909 -8.207,2.044 -12.754,3.409 -4.547,1.365 -8.798,2.865 -12.754,4.502 -3.955,1.636 -7.228,4.272 -9.819,7.91 -2.59,3.636 -3.889,8.047 -3.889,13.231 0,7.727 3.047,14.116 9.14,19.164 6.09,5.046 14.094,7.57 24.007,7.57 13.913,0 25.23,-4.275 33.962,-12.82 L 24.004,69.428 c -7.005,6.998 -15.821,10.501 -26.459,10.501 -4.637,0 -8.345,-1.048 -11.117,-3.137 -2.775,-2.093 -4.161,-4.822 -4.161,-8.186 0,-2.273 0.979,-4.206 2.935,-5.794 1.954,-1.594 4.478,-2.865 7.57,-3.819 3.089,-0.958 6.521,-1.866 10.296,-2.73 3.774,-0.863 7.548,-1.978 11.322,-3.342 3.769,-1.362 7.205,-2.978 10.297,-4.84 3.091,-1.866 5.615,-4.502 7.572,-7.911 1.951,-3.412 2.929,-7.389 2.929,-11.936 0,-8.095 -2.977,-14.822 -8.931,-20.187 C 20.296,2.681 11.546,0 0,0" /></g><g
           transform="translate(3402.6545,356.8283)"
           id="g204"><path
             id="path206"
             style="fill:#9f9f9f;fill-opacity:1;fill-rule:nonzero;stroke:none"
             d="M 0,0 H -62.335 V 90.977 H 0 V 76.928 H -46.375 V 53.467 H -0.954 V 39.418 H -46.375 V 14.049 H 0 Z" /></g><g
           transform="translate(3469.6245,355.1919)"
           id="g208"><path
             id="path210"
             style="fill:#9f9f9f;fill-opacity:1;fill-rule:nonzero;stroke:none"
             d="m 0,0 c -13.639,0 -25.007,4.387 -34.098,13.161 -9.094,8.775 -13.642,20.073 -13.642,33.896 0,13.82 4.548,25.118 13.642,33.895 9.091,8.775 20.459,13.162 34.098,13.162 16.003,0 28.144,-6.776 36.42,-20.323 L 22.914,66.698 C 20.64,70.608 17.437,73.791 13.3,76.245 9.161,78.7 4.728,79.929 0,79.929 c -9.001,0 -16.483,-3.092 -22.437,-9.276 -5.957,-6.183 -8.934,-14.049 -8.934,-23.596 0,-9.46 2.977,-17.301 8.934,-23.53 5.954,-6.229 13.436,-9.342 22.437,-9.342 4.728,0 9.161,1.25 13.3,3.75 4.137,2.5 7.34,5.661 9.614,9.481 L 36.555,20.595 C 27.826,6.863 15.64,0 0,0" /></g><g
           transform="translate(3563.6025,404.8394)"
           id="g212"><path
             id="path214"
             style="fill:#9f9f9f;fill-opacity:1;fill-rule:nonzero;stroke:none"
             d="m 0,0 c 4.544,0 8.273,1.341 11.184,4.025 2.91,2.681 4.366,6.205 4.366,10.571 0,4.272 -1.456,7.726 -4.366,10.365 C 8.273,27.597 4.544,28.917 0,28.917 H -21.96 V 0 Z M 32.597,-48.011 H 14.049 L -6.003,-14.049 H -21.96 V -48.011 H -37.92 V 42.966 H 2.044 c 9.004,0 16.232,-2.639 21.688,-7.911 5.456,-5.275 8.183,-12.138 8.183,-20.595 0,-7.549 -2.114,-13.642 -6.341,-18.279 -4.23,-4.638 -9.345,-7.455 -15.345,-8.455 z" /></g><g
           transform="translate(3680.6304,356.8283)"
           id="g216"><path
             id="path218"
             style="fill:#9f9f9f;fill-opacity:1;fill-rule:nonzero;stroke:none"
             d="M 0,0 H -62.335 V 90.977 H 0 V 76.928 H -46.375 V 53.467 H -0.954 V 39.418 H -46.375 V 14.049 H 0 Z" /></g><g
           transform="translate(3741.4619,356.8283)"
           id="g220"><path
             id="path222"
             style="fill:#9f9f9f;fill-opacity:1;fill-rule:nonzero;stroke:none"
             d="M 0,0 H -15.958 V 76.928 H -43.509 V 90.977 H 27.555 V 76.928 H 0 Z" /></g><g
           transform="translate(3833.1272,388.4714)"
           id="g224"><path
             id="path226"
             style="fill:#9f9f9f;fill-opacity:1;fill-rule:nonzero;stroke:none"
             d="M 0,0 -16.368,43.376 -32.736,0 Z m 29.324,-31.643 h -18.14 l -6.685,17.594 h -41.737 l -6.682,-17.594 h -18.143 l 35.737,90.977 h 19.913 z" /></g><g
           transform="translate(3917.0083,404.8394)"
           id="g228"><path
             id="path230"
             style="fill:#9f9f9f;fill-opacity:1;fill-rule:nonzero;stroke:none"
             d="m 0,0 c 4.544,0 8.273,1.341 11.184,4.025 2.91,2.681 4.366,6.205 4.366,10.571 0,4.272 -1.456,7.726 -4.366,10.365 C 8.273,27.597 4.544,28.917 0,28.917 H -21.96 V 0 Z M 32.597,-48.011 H 14.049 L -6.002,-14.049 H -21.96 V -48.011 H -37.92 V 42.966 H 2.044 c 9.004,0 16.232,-2.639 21.688,-7.911 5.456,-5.275 8.183,-12.138 8.183,-20.595 0,-7.549 -2.114,-13.642 -6.341,-18.279 -4.23,-4.638 -9.345,-7.455 -15.344,-8.455 z" /></g><path
           id="path232"
           style="fill:#9f9f9f;fill-opacity:1;fill-rule:nonzero;stroke:none"
           d="m 3987.662,356.828 h -15.96 v 90.977 h 15.96 z" /><g
           transform="translate(4066.4978,388.4714)"
           id="g234"><path
             id="path236"
             style="fill:#9f9f9f;fill-opacity:1;fill-rule:nonzero;stroke:none"
             d="M 0,0 -16.368,43.376 -32.736,0 Z m 29.324,-31.643 h -18.14 l -6.685,17.594 h -41.737 l -6.682,-17.594 h -18.143 l 35.737,90.977 h 19.913 z" /></g><g
           transform="translate(4188.2993,370.8775)"
           id="g238"><path
             id="path240"
             style="fill:#9f9f9f;fill-opacity:1;fill-rule:nonzero;stroke:none"
             d="m 0,0 c 9.547,0 17.138,3.001 22.778,9.001 5.638,6.002 8.454,13.505 8.454,22.506 0,9.092 -2.75,16.595 -8.252,22.507 -5.501,5.909 -13.116,8.865 -22.844,8.865 H -17.869 L -17.869,0 Z M 0.136,-14.049 H -33.829 V 76.928 H 0 c 14.185,0 25.662,-4.227 34.439,-12.685 C 43.213,55.786 47.601,44.874 47.601,31.507 47.601,18.05 43.237,7.093 34.508,-1.365 25.776,-9.822 14.321,-14.049 0.136,-14.049" /></g><g
           transform="translate(4320.4663,356.8283)"
           id="g242"><path
             id="path244"
             style="fill:#9f9f9f;fill-opacity:1;fill-rule:nonzero;stroke:none"
             d="M 0,0 H -62.335 V 90.977 H 0 V 76.928 H -46.375 V 53.467 H -0.954 V 39.418 H -46.375 V 14.049 H 0 Z" /></g><g
           transform="translate(3286.3091,207.2001)"
           id="g246"><path
             id="path248"
             style="fill:#9f9f9f;fill-opacity:1;fill-rule:nonzero;stroke:none"
             d="m 0,0 c 9.547,0 17.138,3.001 22.778,9.001 5.64,6.002 8.454,13.505 8.454,22.506 0,9.092 -2.747,16.595 -8.249,22.507 -5.501,5.909 -13.116,8.865 -22.847,8.865 H -17.869 L -17.869,0 Z M 0.136,-14.049 H -33.826 V 76.928 H 0 c 14.185,0 25.665,-4.227 34.439,-12.685 C 43.213,55.786 47.604,44.874 47.604,31.507 47.604,18.05 43.237,7.093 34.511,-1.365 25.779,-9.822 14.324,-14.049 0.136,-14.049" /></g><g
           transform="translate(3418.4761,193.151)"
           id="g250"><path
             id="path252"
             style="fill:#9f9f9f;fill-opacity:1;fill-rule:nonzero;stroke:none"
             d="M 0,0 H -62.335 V 90.977 H 0 V 76.928 H -46.375 V 53.467 H -0.954 V 39.418 H -46.375 V 14.049 H 0 Z" /></g><g
           transform="translate(3472.8975,191.5145)"
           id="g254"><path
             id="path256"
             style="fill:#9f9f9f;fill-opacity:1;fill-rule:nonzero;stroke:none"
             d="m 0,0 c -15.369,0 -27.736,4.819 -37.099,14.457 l 9.001,12.412 c 7.729,-8.457 17.322,-12.684 28.78,-12.684 6.09,0 10.641,1.229 13.642,3.684 2.998,2.454 4.499,5.407 4.499,8.865 0,2.91 -1.296,5.341 -3.886,7.297 -2.594,1.954 -5.867,3.385 -9.822,4.297 -3.956,0.909 -8.207,2.044 -12.754,3.409 -4.547,1.365 -8.796,2.865 -12.751,4.502 -3.955,1.636 -7.231,4.272 -9.822,7.91 -2.59,3.636 -3.886,8.047 -3.886,13.231 0,7.727 3.044,14.116 9.137,19.164 6.093,5.046 14.094,7.57 24.007,7.57 13.913,0 25.233,-4.275 33.962,-12.82 L 24.007,69.428 c -7.005,6.998 -15.821,10.501 -26.462,10.501 -4.638,0 -8.342,-1.048 -11.117,-3.137 -2.775,-2.093 -4.158,-4.822 -4.158,-8.186 0,-2.273 0.975,-4.206 2.932,-5.794 1.954,-1.594 4.478,-2.865 7.569,-3.819 3.089,-0.958 6.525,-1.866 10.3,-2.73 3.771,-0.863 7.545,-1.978 11.319,-3.342 3.771,-1.362 7.207,-2.978 10.299,-4.84 3.089,-1.866 5.613,-4.502 7.57,-7.911 1.953,-3.412 2.932,-7.389 2.932,-11.936 0,-8.095 -2.98,-14.822 -8.935,-20.187 C 20.299,2.681 11.546,0 0,0" /></g><g
           transform="translate(3591.8367,193.151)"
           id="g258"><path
             id="path260"
             style="fill:#9f9f9f;fill-opacity:1;fill-rule:nonzero;stroke:none"
             d="M 0,0 H -62.335 V 90.977 H 0 V 76.928 H -46.375 V 53.467 H -0.954 V 39.418 H -46.375 V 14.049 H 0 Z" /></g><g
           transform="translate(3693.8613,193.151)"
           id="g262"><path
             id="path264"
             style="fill:#9f9f9f;fill-opacity:1;fill-rule:nonzero;stroke:none"
             d="M 0,0 H -15.414 L -62.878,65.062 V 0 h -15.961 v 90.977 h 16.368 L -15.957,27.962 V 90.977 H 0 Z" /></g><g
           transform="translate(3766.2871,193.151)"
           id="g266"><path
             id="path268"
             style="fill:#9f9f9f;fill-opacity:1;fill-rule:nonzero;stroke:none"
             d="M 0,0 H -19.913 L -55.65,90.977 h 18.143 L -9.955,17.458 17.597,90.977 h 18.14 z" /></g><g
           transform="translate(3858.4929,205.6995)"
           id="g270"><path
             id="path272"
             style="fill:#9f9f9f;fill-opacity:1;fill-rule:nonzero;stroke:none"
             d="m 0,0 c 9.001,0 16.274,3.113 21.824,9.342 5.544,6.229 8.318,14.07 8.318,23.53 0,9.547 -2.774,17.413 -8.318,23.596 -5.55,6.184 -12.823,9.276 -21.824,9.276 -9.094,0 -16.392,-3.092 -21.894,-9.276 -5.501,-6.183 -8.252,-14.049 -8.252,-23.596 0,-9.547 2.751,-17.413 8.252,-23.596 C -16.392,3.089 -9.094,0 0,0 M 33.415,-0.888 C 24.686,-9.753 13.548,-14.185 0,-14.185 c -13.551,0 -24.689,4.432 -33.418,13.297 -8.729,8.868 -13.095,20.121 -13.095,33.76 0,13.638 4.366,24.892 13.095,33.76 8.729,8.864 19.867,13.297 33.418,13.297 13.548,0 24.686,-4.433 33.415,-13.297 C 42.145,57.764 46.51,46.51 46.51,32.872 46.51,19.233 42.145,7.98 33.415,-0.888" /></g><g
           transform="translate(3982.0698,193.151)"
           id="g274"><path
             id="path276"
             style="fill:#9f9f9f;fill-opacity:1;fill-rule:nonzero;stroke:none"
             d="m 0,0 h -56.061 v 90.977 h 15.958 V 14.049 l 40.103,0 z" /></g><g
           transform="translate(4036.8987,193.151)"
           id="g278"><path
             id="path280"
             style="fill:#9f9f9f;fill-opacity:1;fill-rule:nonzero;stroke:none"
             d="M 0,0 H -19.913 L -55.65,90.977 h 18.143 L -9.955,17.458 17.597,90.977 h 18.14 z" /></g><path
           id="path282"
           style="fill:#9f9f9f;fill-opacity:1;fill-rule:nonzero;stroke:none"
           d="m 4105.233,193.151 h -15.96 v 90.977 h 15.96 z" /><g
           transform="translate(4225.9419,193.151)"
           id="g284"><path
             id="path286"
             style="fill:#9f9f9f;fill-opacity:1;fill-rule:nonzero;stroke:none"
             d="M 0,0 H -15.958 V 70.246 L -43.784,0 h -6.82 l -27.96,70.246 V 0 h -15.96 v 90.977 h 22.506 l 24.825,-62.471 24.687,62.471 H 0 Z" /></g><g
           transform="translate(4314.4639,193.151)"
           id="g288"><path
             id="path290"
             style="fill:#9f9f9f;fill-opacity:1;fill-rule:nonzero;stroke:none"
             d="M 0,0 H -62.335 V 90.977 H 0 V 76.928 H -46.375 V 53.467 H -0.954 V 39.418 H -46.375 V 14.049 H 0 Z" /></g><g
           transform="translate(4416.4888,193.151)"
           id="g292"><path
             id="path294"
             style="fill:#9f9f9f;fill-opacity:1;fill-rule:nonzero;stroke:none"
             d="M 0,0 H -15.414 L -62.878,65.062 V 0 h -15.961 v 90.977 h 16.368 L -15.958,27.962 V 90.977 H 0 Z" /></g><g
           transform="translate(4480.3184,193.151)"
           id="g296"><path
             id="path298"
             style="fill:#9f9f9f;fill-opacity:1;fill-rule:nonzero;stroke:none"
             d="M 0,0 H -15.958 V 76.928 H -43.509 V 90.977 H 27.555 V 76.928 H 0 Z" /></g><g
           transform="translate(4567.3428,205.6995)"
           id="g300"><path
             id="path302"
             style="fill:#9f9f9f;fill-opacity:1;fill-rule:nonzero;stroke:none"
             d="m 0,0 c 9.001,0 16.274,3.113 21.824,9.342 5.544,6.229 8.319,14.07 8.319,23.53 0,9.547 -2.775,17.413 -8.319,23.596 -5.55,6.184 -12.823,9.276 -21.824,9.276 -9.094,0 -16.392,-3.092 -21.894,-9.276 -5.501,-6.183 -8.252,-14.049 -8.252,-23.596 0,-9.547 2.751,-17.413 8.252,-23.596 C -16.392,3.089 -9.094,0 0,0 M 33.416,-0.888 C 24.687,-9.753 13.548,-14.185 0,-14.185 c -13.551,0 -24.689,4.432 -33.418,13.297 -8.729,8.868 -13.096,20.121 -13.096,33.76 0,13.638 4.367,24.892 13.096,33.76 8.729,8.864 19.867,13.297 33.418,13.297 13.548,0 24.687,-4.433 33.416,-13.297 C 42.145,57.764 46.51,46.51 46.51,32.872 46.51,19.233 42.145,7.98 33.416,-0.888" /></g><g
           transform="translate(4740.2959,193.151)"
           id="g304"><path
             id="path306"
             style="fill:#9f9f9f;fill-opacity:1;fill-rule:nonzero;stroke:none"
             d="M 0,0 H -62.335 V 90.977 H 0 V 76.928 H -46.375 V 53.467 H -0.954 V 39.418 H -46.375 V 14.049 H 0 Z" /></g><g
           transform="translate(4807.2656,191.5145)"
           id="g308"><path
             id="path310"
             style="fill:#9f9f9f;fill-opacity:1;fill-rule:nonzero;stroke:none"
             d="m 0,0 c -13.639,0 -25.007,4.387 -34.098,13.161 -9.094,8.775 -13.642,20.073 -13.642,33.896 0,13.82 4.548,25.118 13.642,33.895 9.091,8.775 20.459,13.162 34.098,13.162 16.002,0 28.144,-6.776 36.419,-20.323 L 22.914,66.698 C 20.64,70.608 17.437,73.791 13.3,76.245 9.161,78.7 4.728,79.929 0,79.929 c -9.001,0 -16.483,-3.092 -22.437,-9.276 -5.958,-6.183 -8.935,-14.049 -8.935,-23.596 0,-9.46 2.977,-17.301 8.935,-23.53 5.954,-6.229 13.436,-9.342 22.437,-9.342 4.728,0 9.161,1.25 13.3,3.75 4.137,2.5 7.34,5.661 9.614,9.481 L 36.555,20.595 C 27.826,6.863 15.64,0 0,0" /></g><g
           transform="translate(4905.8784,205.6995)"
           id="g312"><path
             id="path314"
             style="fill:#9f9f9f;fill-opacity:1;fill-rule:nonzero;stroke:none"
             d="m 0,0 c 9,0 16.274,3.113 21.824,9.342 5.544,6.229 8.318,14.07 8.318,23.53 0,9.547 -2.774,17.413 -8.318,23.596 C 16.274,62.652 9,65.744 0,65.744 c -9.095,0 -16.392,-3.092 -21.894,-9.276 -5.501,-6.183 -8.252,-14.049 -8.252,-23.596 0,-9.547 2.751,-17.413 8.252,-23.596 C -16.392,3.089 -9.095,0 0,0 M 33.416,-0.888 C 24.687,-9.753 13.548,-14.185 0,-14.185 c -13.551,0 -24.689,4.432 -33.418,13.297 -8.729,8.868 -13.096,20.121 -13.096,33.76 0,13.638 4.367,24.892 13.096,33.76 8.729,8.864 19.867,13.297 33.418,13.297 13.548,0 24.687,-4.433 33.416,-13.297 C 42.145,57.764 46.51,46.51 46.51,32.872 46.51,19.233 42.145,7.98 33.416,-0.888" /></g><g
           transform="translate(5053.3232,193.151)"
           id="g316"><path
             id="path318"
             style="fill:#9f9f9f;fill-opacity:1;fill-rule:nonzero;stroke:none"
             d="M 0,0 H -15.414 L -62.878,65.062 V 0 h -15.961 v 90.977 h 16.368 L -15.957,27.962 V 90.977 H 0 Z" /></g><g
           transform="translate(5141.8457,292.4492)"
           id="g320"><path
             id="path322"
             style="fill:#9f9f9f;fill-opacity:1;fill-rule:nonzero;stroke:none"
             d="M 0,0 H -9.004 L -19.641,13.231 -29.735,0 h -9.14 l 12.685,19.641 h 13.095 z m -19.777,-86.75 c 9.001,0 16.275,3.113 21.824,9.342 5.543,6.229 8.318,14.071 8.318,23.53 0,9.548 -2.775,17.413 -8.318,23.597 -5.549,6.183 -12.823,9.275 -21.824,9.275 -9.095,0 -16.392,-3.092 -21.893,-9.275 -5.502,-6.184 -8.252,-14.049 -8.252,-23.597 0,-9.547 2.75,-17.412 8.252,-23.596 5.501,-6.187 12.798,-9.276 21.893,-9.276 m 33.415,-0.887 c -8.729,-8.865 -19.867,-13.298 -33.415,-13.298 -13.551,0 -24.689,4.433 -33.418,13.298 -8.729,8.867 -13.096,20.121 -13.096,33.759 0,13.639 4.367,24.892 13.096,33.76 8.729,8.865 19.867,13.297 33.418,13.297 13.548,0 24.686,-4.432 33.415,-13.297 8.729,-8.868 13.095,-20.121 13.095,-33.76 0,-13.638 -4.366,-24.892 -13.095,-33.759" /></g><g
           transform="translate(5285.1997,193.151)"
           id="g324"><path
             id="path326"
             style="fill:#9f9f9f;fill-opacity:1;fill-rule:nonzero;stroke:none"
             d="M 0,0 H -15.958 V 70.246 L -43.784,0 h -6.821 L -78.564,70.246 V 0 h -15.961 v 90.977 h 22.506 l 24.826,-62.471 24.686,62.471 H 0 Z" /></g><path
           id="path328"
           style="fill:#9f9f9f;fill-opacity:1;fill-rule:nonzero;stroke:none"
           d="m 5327.344,193.151 h -15.96 v 90.977 h 15.96 z" /><g
           transform="translate(5397.312,191.5145)"
           id="g330"><path
             id="path332"
             style="fill:#9f9f9f;fill-opacity:1;fill-rule:nonzero;stroke:none"
             d="m 0,0 c -13.639,0 -25.006,4.387 -34.098,13.161 -9.094,8.775 -13.641,20.073 -13.641,33.896 0,13.82 4.547,25.118 13.641,33.895 9.092,8.775 20.459,13.162 34.098,13.162 16.002,0 28.144,-6.776 36.419,-20.323 L 22.914,66.698 C 20.641,70.608 17.437,73.791 13.3,76.245 9.161,78.7 4.729,79.929 0,79.929 c -9.001,0 -16.483,-3.092 -22.437,-9.276 -5.957,-6.183 -8.935,-14.049 -8.935,-23.596 0,-9.46 2.978,-17.301 8.935,-23.53 5.954,-6.229 13.436,-9.342 22.437,-9.342 4.729,0 9.161,1.25 13.3,3.75 4.137,2.5 7.341,5.661 9.614,9.481 L 36.556,20.595 C 27.827,6.863 15.64,0 0,0" /></g><g
           transform="translate(5495.9307,205.6995)"
           id="g334"><path
             id="path336"
             style="fill:#9f9f9f;fill-opacity:1;fill-rule:nonzero;stroke:none"
             d="m 0,0 c 9.001,0 16.274,3.113 21.824,9.342 5.544,6.229 8.319,14.07 8.319,23.53 0,9.547 -2.775,17.413 -8.319,23.596 -5.55,6.184 -12.823,9.276 -21.824,9.276 -9.094,0 -16.392,-3.092 -21.894,-9.276 -5.501,-6.183 -8.252,-14.049 -8.252,-23.596 0,-9.547 2.751,-17.413 8.252,-23.596 C -16.392,3.089 -9.094,0 0,0 M 33.416,-0.888 C 24.687,-9.753 13.548,-14.185 0,-14.185 c -13.551,0 -24.689,4.432 -33.418,13.297 -8.729,8.868 -13.095,20.121 -13.095,33.76 0,13.638 4.366,24.892 13.095,33.76 8.729,8.864 19.867,13.297 33.418,13.297 13.548,0 24.687,-4.433 33.416,-13.297 8.729,-8.868 13.095,-20.122 13.095,-33.76 0,-13.639 -4.366,-24.892 -13.095,-33.76" /></g><g
           transform="translate(5578.4473,198.3353)"
           id="g338"><path
             id="path340"
             style="fill:#9f9f9f;fill-opacity:1;fill-rule:nonzero;stroke:none"
             d="m 0,0 c 0,-4.638 -1.159,-9.004 -3.475,-13.095 -2.319,-4.091 -5.39,-7.503 -9.209,-10.23 l -6.546,5.32 c 2.27,1.362 4.387,3.273 6.343,5.728 1.954,2.455 3.114,4.822 3.476,7.093 -0.544,-0.272 -1.317,-0.411 -2.319,-0.411 -2.274,0 -4.182,0.821 -5.728,2.458 -1.546,1.636 -2.319,3.726 -2.319,6.274 0,2.542 0.909,4.725 2.73,6.546 1.818,1.818 4.001,2.727 6.546,2.727 2.91,0 5.386,-1.115 7.434,-3.34 C -1.021,6.839 0,3.816 0,0" /></g><g
           transform="translate(3314.8179,29.4736)"
           id="g342"><path
             id="path344"
             style="fill:#9f9f9f;fill-opacity:1;fill-rule:nonzero;stroke:none"
             d="M 0,0 H -62.335 V 90.977 H 0 V 76.928 H -46.377 V 53.467 H -0.954 V 39.418 H -46.377 V 14.049 H 0 Z" /></g><g
           transform="translate(3432.5254,29.4736)"
           id="g346"><path
             id="path348"
             style="fill:#9f9f9f;fill-opacity:1;fill-rule:nonzero;stroke:none"
             d="M 0,0 H -15.958 V 70.246 L -43.784,0 h -6.821 L -78.564,70.246 V 0 h -15.961 v 90.977 h 22.507 l 24.825,-62.471 24.686,62.471 H 0 Z" /></g><g
           transform="translate(3496.6328,77.6206)"
           id="g350"><path
             id="path352"
             style="fill:#9f9f9f;fill-opacity:1;fill-rule:nonzero;stroke:none"
             d="m 0,0 c 4.544,0 8.252,1.319 11.114,3.955 2.865,2.639 4.297,6.093 4.297,10.369 0,4.363 -1.432,7.862 -4.297,10.501 C 8.252,27.461 4.544,28.781 0,28.781 H -21.96 V 0 Z M -21.96,-48.147 H -37.92 V 42.83 H 2.183 c 9.182,0 16.41,-2.727 21.685,-8.183 5.272,-5.456 7.911,-12.231 7.911,-20.323 0,-8.004 -2.639,-14.732 -7.911,-20.188 -5.275,-5.456 -12.503,-8.182 -21.685,-8.182 H -21.96 Z" /></g><g
           transform="translate(3586.5195,77.4847)"
           id="g354"><path
             id="path356"
             style="fill:#9f9f9f;fill-opacity:1;fill-rule:nonzero;stroke:none"
             d="m 0,0 c 4.544,0 8.273,1.341 11.184,4.025 2.91,2.681 4.366,6.205 4.366,10.571 0,4.272 -1.456,7.726 -4.366,10.365 C 8.273,27.597 4.544,28.917 0,28.917 H -21.96 V 0 Z M 32.597,-48.011 H 14.049 L -6.002,-14.049 H -21.96 V -48.011 H -37.92 V 42.966 H 2.044 c 9.004,0 16.232,-2.639 21.688,-7.911 5.456,-5.275 8.183,-12.138 8.183,-20.595 0,-7.549 -2.114,-13.642 -6.341,-18.28 -4.23,-4.637 -9.345,-7.454 -15.344,-8.454 z" /></g><g
           transform="translate(3703.5476,29.4736)"
           id="g358"><path
             id="path360"
             style="fill:#9f9f9f;fill-opacity:1;fill-rule:nonzero;stroke:none"
             d="M 0,0 H -62.335 V 90.977 H 0 V 76.928 H -46.375 V 53.467 H -0.954 V 39.418 H -46.375 V 14.049 H 0 Z" /></g><g
           transform="translate(3789.0684,29.4736)"
           id="g362"><path
             id="path364"
             style="fill:#9f9f9f;fill-opacity:1;fill-rule:nonzero;stroke:none"
             d="M 0,0 H -62.335 V 90.977 H 0 V 76.928 H -46.375 V 53.467 H -0.954 V 39.418 H -46.375 V 14.049 H 0 Z" /></g><g
           transform="translate(3891.093,29.4736)"
           id="g366"><path
             id="path368"
             style="fill:#9f9f9f;fill-opacity:1;fill-rule:nonzero;stroke:none"
             d="M 0,0 H -15.414 L -62.878,65.062 V 0 h -15.961 v 90.977 h 16.368 L -15.957,27.962 V 90.977 H 0 Z" /></g><g
           transform="translate(3951.1062,43.5228)"
           id="g370"><path
             id="path372"
             style="fill:#9f9f9f;fill-opacity:1;fill-rule:nonzero;stroke:none"
             d="m 0,0 c 9.547,0 17.138,3.001 22.778,9.001 5.637,6.002 8.454,13.505 8.454,22.506 0,9.092 -2.75,16.595 -8.252,22.507 -5.501,5.909 -13.116,8.865 -22.844,8.865 H -17.869 L -17.869,0 Z M 0.136,-14.049 H -33.829 V 76.928 H 0 c 14.185,0 25.662,-4.227 34.439,-12.685 C 43.213,55.786 47.601,44.874 47.601,31.507 47.601,18.05 43.238,7.093 34.509,-1.365 25.776,-9.822 14.321,-14.049 0.136,-14.049" /></g><g
           transform="translate(4083.2734,29.4736)"
           id="g374"><path
             id="path376"
             style="fill:#9f9f9f;fill-opacity:1;fill-rule:nonzero;stroke:none"
             d="M 0,0 H -62.335 V 90.977 H 0 V 76.928 H -46.375 V 53.467 H -0.954 V 39.418 H -46.375 V 14.049 H 0 Z" /></g><g
           transform="translate(4140.2881,43.5228)"
           id="g378"><path
             id="path380"
             style="fill:#9f9f9f;fill-opacity:1;fill-rule:nonzero;stroke:none"
             d="m 0,0 c 9.547,0 17.138,3.001 22.778,9.001 5.638,6.002 8.454,13.505 8.454,22.506 0,9.092 -2.75,16.595 -8.252,22.507 -5.501,5.909 -13.116,8.865 -22.844,8.865 H -17.869 L -17.869,0 Z M 0.136,-14.049 H -33.829 V 76.928 H 0 c 14.185,0 25.662,-4.227 34.439,-12.685 C 43.213,55.786 47.601,44.874 47.601,31.507 47.601,18.05 43.238,7.093 34.509,-1.365 25.776,-9.822 14.321,-14.049 0.136,-14.049" /></g><g
           transform="translate(4252.6787,42.0221)"
           id="g382"><path
             id="path384"
             style="fill:#9f9f9f;fill-opacity:1;fill-rule:nonzero;stroke:none"
             d="m 0,0 c 9,0 16.274,3.113 21.824,9.342 5.543,6.229 8.318,14.07 8.318,23.53 0,9.547 -2.775,17.413 -8.318,23.596 C 16.274,62.652 9,65.744 0,65.744 c -9.095,0 -16.393,-3.092 -21.894,-9.276 -5.501,-6.183 -8.252,-14.049 -8.252,-23.596 0,-9.547 2.751,-17.413 8.252,-23.596 C -16.393,3.089 -9.095,0 0,0 M 33.415,-0.888 C 24.686,-9.753 13.548,-14.185 0,-14.185 c -13.551,0 -24.689,4.432 -33.418,13.297 -8.729,8.868 -13.096,20.121 -13.096,33.76 0,13.638 4.367,24.892 13.096,33.76 8.729,8.864 19.867,13.297 33.418,13.297 13.548,0 24.686,-4.433 33.415,-13.297 C 42.144,57.764 46.51,46.51 46.51,32.872 46.51,19.233 42.144,7.98 33.415,-0.888" /></g><g
           transform="translate(4359.2051,77.4847)"
           id="g386"><path
             id="path388"
             style="fill:#9f9f9f;fill-opacity:1;fill-rule:nonzero;stroke:none"
             d="m 0,0 c 4.544,0 8.273,1.341 11.184,4.025 2.91,2.681 4.366,6.205 4.366,10.571 0,4.272 -1.456,7.726 -4.366,10.365 C 8.273,27.597 4.544,28.917 0,28.917 H -21.96 V 0 Z M 32.597,-48.011 H 14.049 L -6.002,-14.049 H -21.96 V -48.011 H -37.92 V 42.966 H 2.044 c 9.004,0 16.232,-2.639 21.688,-7.911 5.456,-5.275 8.183,-12.138 8.183,-20.595 0,-7.549 -2.114,-13.642 -6.341,-18.28 -4.23,-4.637 -9.345,-7.454 -15.345,-8.454 z" /></g><path
           id="path390"
           style="fill:#9f9f9f;fill-opacity:1;fill-rule:nonzero;stroke:none"
           d="m 4429.858,29.474 h -15.96 v 90.977 h 15.96 z" /><g
           transform="translate(4487.2778,27.8371)"
           id="g392"><path
             id="path394"
             style="fill:#9f9f9f;fill-opacity:1;fill-rule:nonzero;stroke:none"
             d="m 0,0 c -15.369,0 -27.736,4.819 -37.099,14.457 l 9.001,12.412 c 7.729,-8.457 17.322,-12.684 28.781,-12.684 6.089,0 10.64,1.229 13.641,3.684 2.998,2.454 4.499,5.407 4.499,8.865 0,2.91 -1.295,5.341 -3.886,7.297 -2.594,1.954 -5.867,3.385 -9.822,4.297 -3.955,0.909 -8.207,2.044 -12.754,3.409 -4.547,1.365 -8.795,2.865 -12.751,4.502 -3.955,1.636 -7.231,4.272 -9.822,7.911 -2.59,3.635 -3.886,8.046 -3.886,13.23 0,7.727 3.044,14.116 9.137,19.164 6.093,5.046 14.094,7.57 24.007,7.57 13.913,0 25.233,-4.275 33.962,-12.82 L 24.007,69.428 c -7.005,6.998 -15.821,10.501 -26.462,10.501 -4.637,0 -8.342,-1.048 -11.117,-3.137 -2.775,-2.093 -4.157,-4.822 -4.157,-8.186 0,-2.273 0.975,-4.206 2.931,-5.794 1.954,-1.594 4.478,-2.865 7.57,-3.819 3.088,-0.958 6.525,-1.866 10.299,-2.73 3.771,-0.863 7.545,-1.978 11.32,-3.342 3.771,-1.362 7.207,-2.977 10.298,-4.84 3.089,-1.866 5.614,-4.502 7.57,-7.911 1.954,-3.412 2.932,-7.389 2.932,-11.936 0,-8.095 -2.98,-14.822 -8.934,-20.187 C 20.299,2.681 11.546,0 0,0" /></g><g
           transform="translate(4638.4067,29.4736)"
           id="g396"><path
             id="path398"
             style="fill:#9f9f9f;fill-opacity:1;fill-rule:nonzero;stroke:none"
             d="M 0,0 H -15.958 V 70.246 L -43.784,0 h -6.82 l -27.96,70.246 V 0 h -15.96 v 90.977 h 22.506 l 24.825,-62.471 24.687,62.471 H 0 Z" /></g><g
           transform="translate(4707.1489,42.0221)"
           id="g400"><path
             id="path402"
             style="fill:#9f9f9f;fill-opacity:1;fill-rule:nonzero;stroke:none"
             d="m 0,0 c 9.001,0 16.274,3.113 21.824,9.342 5.544,6.229 8.319,14.07 8.319,23.53 0,9.547 -2.775,17.413 -8.319,23.596 -5.55,6.184 -12.823,9.276 -21.824,9.276 -9.094,0 -16.392,-3.092 -21.894,-9.276 -5.501,-6.183 -8.252,-14.049 -8.252,-23.596 0,-9.547 2.751,-17.413 8.252,-23.596 C -16.392,3.089 -9.094,0 0,0 M 33.416,-0.888 C 24.687,-9.753 13.548,-14.185 0,-14.185 c -13.551,0 -24.689,4.432 -33.418,13.297 -8.729,8.868 -13.096,20.121 -13.096,33.76 0,13.638 4.367,24.892 13.096,33.76 8.729,8.864 19.867,13.297 33.418,13.297 13.548,0 24.687,-4.433 33.416,-13.297 8.729,-8.868 13.095,-20.122 13.095,-33.76 0,-13.639 -4.366,-24.892 -13.095,-33.76" /></g><g
           transform="translate(4880.1021,29.4736)"
           id="g404"><path
             id="path406"
             style="fill:#9f9f9f;fill-opacity:1;fill-rule:nonzero;stroke:none"
             d="M 0,0 H -62.335 V 90.977 H 0 V 76.928 H -46.375 V 53.467 H -0.954 V 39.418 H -46.375 V 14.049 H 0 Z" /></g><path
           id="path408"
           style="fill:#9f9f9f;fill-opacity:1;fill-rule:nonzero;stroke:none"
           d="m 4961.257,29.474 h -15.96 v 90.977 h 15.96 z" /><g
           transform="translate(5066.2798,29.4736)"
           id="g410"><path
             id="path412"
             style="fill:#9f9f9f;fill-opacity:1;fill-rule:nonzero;stroke:none"
             d="M 0,0 H -15.414 L -62.879,65.062 V 0 h -15.96 v 90.977 h 16.368 L -15.958,27.962 V 90.977 H 0 Z" /></g><g
           transform="translate(5135.0249,42.0221)"
           id="g414"><path
             id="path416"
             style="fill:#9f9f9f;fill-opacity:1;fill-rule:nonzero;stroke:none"
             d="m 0,0 c 9,0 16.274,3.113 21.824,9.342 5.544,6.229 8.318,14.07 8.318,23.53 0,9.547 -2.774,17.413 -8.318,23.596 C 16.274,62.652 9,65.744 0,65.744 c -9.094,0 -16.392,-3.092 -21.894,-9.276 -5.501,-6.183 -8.252,-14.049 -8.252,-23.596 0,-9.547 2.751,-17.413 8.252,-23.596 C -16.392,3.089 -9.094,0 0,0 M 33.416,-0.888 C 24.687,-9.753 13.548,-14.185 0,-14.185 c -13.551,0 -24.689,4.432 -33.418,13.297 -8.729,8.868 -13.096,20.121 -13.096,33.76 0,13.638 4.367,24.892 13.096,33.76 8.729,8.864 19.867,13.297 33.418,13.297 13.548,0 24.687,-4.433 33.416,-13.297 C 42.145,57.764 46.51,46.51 46.51,32.872 46.51,19.233 42.145,7.98 33.416,-0.888" /></g><g
           transform="translate(5247.1401,29.4736)"
           id="g418"><path
             id="path420"
             style="fill:#9f9f9f;fill-opacity:1;fill-rule:nonzero;stroke:none"
             d="M 0,0 H -19.913 L -55.65,90.977 h 18.144 L -9.955,17.458 17.597,90.977 h 18.14 z" /></g><g
           transform="translate(5345.3516,61.1167)"
           id="g422"><path
             id="path424"
             style="fill:#9f9f9f;fill-opacity:1;fill-rule:nonzero;stroke:none"
             d="M 0,0 -16.368,43.376 -32.736,0 Z m 29.324,-31.643 h -18.14 l -6.685,17.594 h -41.737 l -6.682,-17.594 h -18.143 l 35.737,90.977 h 19.913 z" /></g><g
           transform="translate(5429.5044,3.5583)"
           id="g426"><path
             id="path428"
             style="fill:#9f9f9f;fill-opacity:1;fill-rule:nonzero;stroke:none"
             d="m 0,0 c -5.912,0 -10.73,1.41 -14.457,4.227 l 3.138,6.274 c 3.273,-2.636 6.956,-3.955 11.048,-3.955 2.089,0 3.864,0.435 5.319,1.295 1.453,0.867 2.181,2.072 2.181,3.618 0,2.726 -1.456,4.091 -4.363,4.091 -2.002,0 -3.594,-0.683 -4.774,-2.047 l -5.456,3.137 2.862,7.911 c -12.367,1.183 -22.527,6.072 -30.483,14.662 -7.959,8.593 -11.936,19.303 -11.936,32.123 0,13.819 4.547,25.118 13.642,33.895 9.091,8.775 20.459,13.162 34.097,13.162 16.003,0 28.144,-6.776 36.42,-20.324 L 23.732,90.977 c -2.273,3.91 -5.477,7.092 -9.613,9.547 -4.14,2.455 -8.572,3.684 -13.301,3.684 -9,0 -16.483,-3.092 -22.437,-9.276 -5.957,-6.183 -8.934,-14.049 -8.934,-23.596 0,-9.46 2.977,-17.301 8.934,-23.53 5.954,-6.229 13.437,-9.342 22.437,-9.342 4.729,0 9.161,1.25 13.301,3.75 4.136,2.5 7.34,5.661 9.613,9.481 L 37.374,44.874 C 29.007,31.688 17.458,24.825 2.729,24.279 L 0.818,19.23 c 1.456,1.003 3.092,1.501 4.913,1.501 2.542,0 4.68,-0.885 6.41,-2.66 1.724,-1.772 2.591,-4.022 2.591,-6.751 0,-3.361 -1.41,-6.09 -4.228,-8.183 C 7.685,1.045 4.182,0 0,0" /></g><g
           transform="translate(5539.0322,61.1167)"
           id="g430"><path
             id="path432"
             style="fill:#9f9f9f;fill-opacity:1;fill-rule:nonzero;stroke:none"
             d="M 0,0 -16.368,43.376 -32.736,0 Z m -8.457,67.38 c -2.639,0 -4.913,0.888 -6.821,2.66 -1.908,1.776 -3.569,3.548 -4.979,5.321 -1.41,1.772 -2.887,2.66 -4.432,2.66 -3.729,0 -5.592,-3.273 -5.592,-9.822 h -7.911 c 0,5.637 1.205,10.093 3.614,13.366 2.41,3.276 5.885,4.913 10.435,4.913 1.725,0 3.294,-0.365 4.705,-1.093 1.41,-0.728 2.569,-1.615 3.478,-2.66 0.909,-1.045 1.751,-2.093 2.524,-3.137 0.77,-1.045 1.637,-1.933 2.591,-2.657 0.954,-0.731 1.932,-1.093 2.931,-1.093 1.64,0 3.002,0.818 4.095,2.454 1.09,1.637 1.636,4.095 1.636,7.368 H 5.592 C 5.592,80.02 4.384,75.566 1.978,72.293 -0.435,69.017 -3.913,67.38 -8.457,67.38 m 37.781,-99.023 h -18.14 l -6.685,17.594 h -41.737 l -6.681,-17.594 h -18.144 l 35.737,90.977 h 19.913 z" /></g><g
           transform="translate(5622.7808,42.0221)"
           id="g434"><path
             id="path436"
             style="fill:#9f9f9f;fill-opacity:1;fill-rule:nonzero;stroke:none"
             d="m 0,0 c 9.001,0 16.274,3.113 21.824,9.342 5.544,6.229 8.319,14.07 8.319,23.53 0,9.547 -2.775,17.413 -8.319,23.596 -5.55,6.184 -12.823,9.276 -21.824,9.276 -9.094,0 -16.392,-3.092 -21.894,-9.276 -5.501,-6.183 -8.252,-14.049 -8.252,-23.596 0,-9.547 2.751,-17.413 8.252,-23.596 C -16.392,3.089 -9.094,0 0,0 M 33.416,-0.888 C 24.687,-9.753 13.548,-14.185 0,-14.185 c -13.551,0 -24.689,4.432 -33.418,13.297 -8.729,8.868 -13.095,20.121 -13.095,33.76 0,13.638 4.366,24.892 13.095,33.76 8.729,8.864 19.867,13.297 33.418,13.297 13.548,0 24.687,-4.433 33.416,-13.297 8.729,-8.868 13.095,-20.122 13.095,-33.76 0,-13.639 -4.366,-24.892 -13.095,-33.76" /></g><g
           transform="translate(3091.0835,471.9115)"
           id="g438"><path
             id="path440"
             style="fill:none;stroke:#9f9f9f;stroke-width:9.27600002;stroke-linecap:butt;stroke-linejoin:miter;stroke-miterlimit:10;stroke-dasharray:none;stroke-opacity:1"
             d="M 0,0 V -465.234" /></g></g></g></g></svg>