<?xml version="1.0" encoding="UTF-8" standalone="no"?>
<svg
   xmlns:dc="http://purl.org/dc/elements/1.1/"
   xmlns:cc="http://creativecommons.org/ns#"
   xmlns:rdf="http://www.w3.org/1999/02/22-rdf-syntax-ns#"
   xmlns:svg="http://www.w3.org/2000/svg"
   xmlns="http://www.w3.org/2000/svg"
   viewBox="0 0 5000 765.27734"
   height="765.27734"
   width="5000"
   xml:space="preserve"
   id="svg2"
   version="1.1"><g
     transform="matrix(1.3333333,0,0,-1.3333333,0,765.27733)"
     id="g10"><g
       id="g12"><g
         id="g14"><g
           id="g20"><g
             id="g22"><path
               id="path30"
               style="fill:teal;stroke:none"
               d="m 2918.497,408.495 h -97.8 v 97.8 h 97.8 z" /></g></g></g></g><g
       id="g32"><g
         id="g34"><g
           id="g40"><g
             id="g42"><path
               id="path50"
               style="fill:teal;stroke:none"
               d="M 86.12,441.878 C 51.811,417.182 35.01,383.139 35.01,339.083 v 0 c 0,-62.744 37.808,-107.466 112.726,-134.165 v 0 c 23.106,-8.009 58.115,-18.023 77.019,-23.358 v 0 c 9.804,-2.674 19.606,-6.009 28.706,-9.348 v 0 c 18.907,-7.339 27.308,-16.019 27.308,-28.701 v 0 c 0,-22.028 -21.703,-33.372 -65.116,-33.372 v 0 c -51.113,0 -95.924,23.36 -121.829,57.402 v 0 L 0,98.79 C 18.903,71.425 45.51,48.061 80.519,28.707 v 0 C 116.229,9.346 161.04,0 215.653,0 v 0 c 129.532,0 194.648,57.407 194.648,147.516 v 0 c 0,63.411 -34.308,105.463 -118.33,134.165 v 0 c -30.805,10.678 -69.318,21.357 -86.12,24.696 v 0 c -8.401,2.002 -16.804,4.671 -24.506,8.01 v 0 c -14.703,6.007 -19.606,13.352 -19.606,26.698 v 0 c 0,16.686 18.905,28.702 53.213,28.702 v 0 c 37.111,0 66.519,-12.016 88.224,-36.711 v 0 l 87.521,71.419 c -39.909,49.398 -100.126,74.094 -180.644,74.094 v 0 c -48.314,0 -89.623,-12.016 -123.933,-36.711" /></g></g></g></g><g
       id="g52"><g
         id="g54"><g
           id="g60"><g
             id="g62"><path
               id="path70"
               style="fill:teal;stroke:none"
               d="M 433.465,471.91 V 6.679 H 798.956 V 118.816 H 566.498 v 70.753 H 777.95 V 293.695 H 566.498 v 64.076 H 793.356 V 471.91 Z" /></g></g></g></g><g
       id="g72"><g
         id="g74"><g
           id="g80"><g
             id="g82"><path
               id="path90"
               style="fill:teal;stroke:none"
               d="M 1331.763,471.91 V 6.679 h 365.49 v 112.137 h -232.458 v 70.753 h 211.452 v 104.126 h -211.452 v 64.076 H 1691.65 V 471.91 Z" /></g></g></g></g><g
       id="g92"><g
         id="g94"><g
           id="g100"><g
             id="g102"><path
               id="path110"
               style="fill:teal;stroke:none"
               d="M 2162.857,471.91 2004.619,260.318 1846.38,471.91 H 1737.154 V 6.679 h 123.226 v 246.3 L 2004.619,62.744 2148.857,252.979 V 6.679 h 123.226 V 471.91 Z" /></g></g></g></g><g
       id="g112"><g
         id="g114"><g
           id="g120"><g
             id="g122"><path
               id="path130"
               style="fill:teal;stroke:none"
               d="M 2323.892,471.912 V 6.677 h 133.031 v 134.831 h 95.924 c 42.709,0 81.918,15.355 117.627,46.725 v 0 c 35.711,31.368 53.913,70.755 53.913,118.144 v 0 c 0,53.398 -25.202,98.791 -59.51,124.818 v 0 c -34.314,26.704 -74.924,40.717 -112.03,40.717 v 0 z m 133.031,-114.806 h 89.622 c 6.302,0 11.905,-0.665 25.206,-6.007 v 0 c 13.304,-5.342 21.706,-21.357 21.706,-44.722 v 0 c 0,-22.028 -8.402,-38.049 -21.706,-43.384 v 0 c -11.904,-5.343 -18.206,-6.679 -24.507,-6.679 v 0 h -90.321 z" /></g></g></g></g><g
       id="g132"><g
         id="g134"><g
           id="g140"><g
             id="g142"><path
               id="path150"
               style="fill:teal;stroke:none"
               d="M 2757.282,471.909 V 6.684 h 126.828 v 380.874 h -84.351 v 84.351 z" /></g></g></g></g><g
       id="g152"><g
         id="g154"><g
           id="g160"><g
             id="g162"><path
               id="path170"
               style="fill:teal;stroke:none"
               d="m 2895.135,527.233 h 46.725 v 46.725 h -46.725 z" /></g></g></g></g><g
       id="g172"><g
         id="g174"><g
           id="g180"><g
             id="g182"><path
               id="path190"
               style="fill:teal;stroke:none"
               d="M 838.856,471.895 V 298.522 h 133.352 v 82.896 L 1189.943,239.294 972.208,97.226 v 82.841 H 838.856 V 6.694 h 198.856 c 84.725,0 149.828,20.669 193.935,62.718 v 0 c 44.851,42.048 67.22,98.112 67.22,168.901 v 0 c 0,69.426 -22.369,125.49 -67.906,168.847 v 0 c -44.794,43.411 -109.21,64.735 -193.935,64.735 v 0 z" /></g></g></g></g></g></svg>