<?xml version="1.0" encoding="UTF-8" standalone="no" ?>
<!DOCTYPE svg PUBLIC "-//W3C//DTD SVG 1.1//EN" "http://www.w3.org/Graphics/SVG/1.1/DTD/svg11.dtd">
<svg xmlns="http://www.w3.org/2000/svg" xmlns:xlink="http://www.w3.org/1999/xlink" version="1.1" width="640" height="150" viewBox="0 0 640 150" xml:space="preserve">
<desc>Created with Fabric.js 3.6.3</desc>
<defs>
</defs>
<g transform="matrix(0.15 0 0 0.15 398.02 72.5)"  >
<g style=""   >
		<g transform="matrix(1.33 0 0 -1.33 1325.96 -227.39)"  >
<path style="stroke: none; stroke-width: 1; stroke-dasharray: none; stroke-linecap: butt; stroke-dashoffset: 0; stroke-linejoin: miter; stroke-miterlimit: 4; fill: rgb(0,128,128); fill-rule: nonzero; opacity: 1;"  transform=" translate(-2869.6, -457.39)" d="m 2918.497 408.495 h -97.8 v 97.8 h 97.8 z" stroke-linecap="round" />
</g>
		<g transform="matrix(1.33 0 0 -1.33 -2227.15 62.78)"  >
<path style="stroke: none; stroke-width: 1; stroke-dasharray: none; stroke-linecap: butt; stroke-dashoffset: 0; stroke-linejoin: miter; stroke-miterlimit: 4; fill: rgb(0,128,128); fill-rule: nonzero; opacity: 1;"  transform=" translate(-205.15, -239.29)" d="M 86.12 441.878 C 51.811 417.182 35.01 383.139 35.01 339.083 v 0 c 0 -62.744 37.808 -107.466 112.726 -134.165 v 0 c 23.106 -8.009 58.115 -18.023 77.019 -23.358 v 0 c 9.804 -2.674 19.606 -6.009 28.706 -9.348 v 0 c 18.907 -7.339 27.308 -16.019 27.308 -28.701 v 0 c 0 -22.028 -21.703 -33.372 -65.116 -33.372 v 0 c -51.113 0 -95.924 23.36 -121.829 57.402 v 0 L 0 98.79 C 18.903 71.425 45.51 48.061 80.519 28.707 v 0 C 116.229 9.346 161.04 0 215.653 0 v 0 c 129.532 0 194.648 57.407 194.648 147.516 v 0 c 0 63.411 -34.308 105.463 -118.33 134.165 v 0 c -30.805 10.678 -69.318 21.357 -86.12 24.696 v 0 c -8.401 2.002 -16.804 4.671 -24.506 8.01 v 0 c -14.703 6.007 -19.606 13.352 -19.606 26.698 v 0 c 0 16.686 18.905 28.702 53.213 28.702 v 0 c 37.111 0 66.519 -12.016 88.224 -36.711 v 0 l 87.521 71.419 c -39.909 49.398 -100.126 74.094 -180.644 74.094 v 0 c -48.314 0 -89.623 -12.016 -123.933 -36.711" stroke-linecap="round" />
</g>
		<g transform="matrix(1.33 0 0 -1.33 -1678.99 62.8)"  >
<path style="stroke: none; stroke-width: 1; stroke-dasharray: none; stroke-linecap: butt; stroke-dashoffset: 0; stroke-linejoin: miter; stroke-miterlimit: 4; fill: rgb(0,128,128); fill-rule: nonzero; opacity: 1;"  transform=" translate(-616.21, -239.29)" d="M 433.465 471.91 V 6.679 H 798.956 V 118.816 H 566.498 v 70.753 H 777.95 V 293.695 H 566.498 v 64.076 H 793.356 V 471.91 Z" stroke-linecap="round" />
</g>
		<g transform="matrix(1.33 0 0 -1.33 -481.26 62.8)"  >
<path style="stroke: none; stroke-width: 1; stroke-dasharray: none; stroke-linecap: butt; stroke-dashoffset: 0; stroke-linejoin: miter; stroke-miterlimit: 4; fill: rgb(0,128,128); fill-rule: nonzero; opacity: 1;"  transform=" translate(-1514.51, -239.29)" d="M 1331.763 471.91 V 6.679 h 365.49 v 112.137 h -232.458 v 70.753 h 211.452 v 104.126 h -211.452 v 64.076 H 1691.65 V 471.91 Z" stroke-linecap="round" />
</g>
		<g transform="matrix(1.33 0 0 -1.33 171.93 62.8)"  >
<path style="stroke: none; stroke-width: 1; stroke-dasharray: none; stroke-linecap: butt; stroke-dashoffset: 0; stroke-linejoin: miter; stroke-miterlimit: 4; fill: rgb(0,128,128); fill-rule: nonzero; opacity: 1;"  transform=" translate(-2004.62, -239.29)" d="M 2162.857 471.91 L 2004.619 260.318 L 1846.38 471.91 H 1737.154 V 6.679 h 123.226 v 246.3 L 2004.619 62.744 L 2148.857 252.979 V 6.679 h 123.226 V 471.91 Z" stroke-linecap="round" />
</g>
		<g transform="matrix(1.33 0 0 -1.33 864.85 62.81)"  >
<path style="stroke: none; stroke-width: 1; stroke-dasharray: none; stroke-linecap: butt; stroke-dashoffset: 0; stroke-linejoin: miter; stroke-miterlimit: 4; fill: rgb(0,128,128); fill-rule: nonzero; opacity: 1;"  transform=" translate(-2524.14, -239.29)" d="M 2323.892 471.912 V 6.677 h 133.031 v 134.831 h 95.924 c 42.709 0 81.918 15.355 117.627 46.725 v 0 c 35.711 31.368 53.913 70.755 53.913 118.144 v 0 c 0 53.398 -25.202 98.791 -59.51 124.818 v 0 c -34.314 26.704 -74.924 40.717 -112.03 40.717 v 0 z m 133.031 -114.806 h 89.622 c 6.302 0 11.905 -0.665 25.206 -6.007 v 0 c 13.304 -5.342 21.706 -21.357 21.706 -44.722 v 0 c 0 -22.028 -8.402 -38.049 -21.706 -43.384 v 0 c -11.904 -5.343 -18.206 -6.679 -24.507 -6.679 v 0 h -90.321 z" stroke-linecap="round" />
</g>
		<g transform="matrix(1.33 0 0 -1.33 1260.72 62.8)"  >
<path style="stroke: none; stroke-width: 1; stroke-dasharray: none; stroke-linecap: butt; stroke-dashoffset: 0; stroke-linejoin: miter; stroke-miterlimit: 4; fill: rgb(0,128,128); fill-rule: nonzero; opacity: 1;"  transform=" translate(-2820.7, -239.3)" d="M 2757.282 471.909 V 6.684 h 126.828 v 380.874 h -84.351 v 84.351 z" stroke-linecap="round" />
</g>
		<g transform="matrix(1.33 0 0 -1.33 1391.25 -351.57)"  >
<path style="stroke: none; stroke-width: 1; stroke-dasharray: none; stroke-linecap: butt; stroke-dashoffset: 0; stroke-linejoin: miter; stroke-miterlimit: 4; fill: rgb(0,128,128); fill-rule: nonzero; opacity: 1;"  transform=" translate(-2918.5, -550.6)" d="m 2895.135 527.233 h 46.725 v 46.725 h -46.725 z" stroke-linecap="round" />
</g>
		<g transform="matrix(1.33 0 0 -1.33 -1075.62 62.8)"  >
<path style="stroke: none; stroke-width: 1; stroke-dasharray: none; stroke-linecap: butt; stroke-dashoffset: 0; stroke-linejoin: miter; stroke-miterlimit: 4; fill: rgb(0,128,128); fill-rule: nonzero; opacity: 1;"  transform=" translate(-1068.86, -239.29)" d="M 838.856 471.895 V 298.522 h 133.352 v 82.896 L 1189.943 239.294 L 972.208 97.226 v 82.841 H 838.856 V 6.694 h 198.856 c 84.725 0 149.828 20.669 193.935 62.718 v 0 c 44.851 42.048 67.22 98.112 67.22 168.901 v 0 c 0 69.426 -22.369 125.49 -67.906 168.847 v 0 c -44.794 43.411 -109.21 64.735 -193.935 64.735 v 0 z" stroke-linecap="round" />
</g>
</g>
</g>
</svg>